<?xml version="1.0" encoding="UTF-8"?><svg xmlns="http://www.w3.org/2000/svg" version="1.1" width="1024" height="1536" viewBox="0 0 1024 1536"><metadata><rdf:RDF xmlns:rdf="http://www.w3.org/1999/02/22-rdf-syntax-ns#"><rdf:Description><dc:title xmlns:dc="http://purl.org/dc/elements/1.1/">BOOOMERANGS Stream Vectorized</dc:title><dc:creator xmlns:dc="http://purl.org/dc/elements/1.1/">BOOOMERANGS Advanced Vectorizer</dc:creator><dc:description xmlns:dc="http://purl.org/dc/elements/1.1/">Vectorized with 264 contours in 5 layers</dc:description></rdf:Description></rdf:RDF></metadata>  <g id="merged_01030d" fill="#01030d" fill-rule="evenodd">
    <path d="M 0.00 72.00 C 70.00 1.00,2.00 0.00,3.00 0.00 C 9.00 95.00,0.00 37.00,1.00 38.00 Z M 0.00 119.00 C 78.00 2.00,3.00 94.00,4.00 93.00 Z M 0.00 172.00 C 126.00 2.00,79.00 94.00,80.00 93.00 Z M 267.00 0.00 C 291.00 95.00,265.00 1.00,266.00 2.00 C 289.00 93.00,267.00 3.00,268.00 9.00 Z M 1.00 292.00 C 95.00 388.00,0.00 344.00,293.00 94.00 Z M 1.00 389.00 C 95.00 428.00,0.00 393.00,390.00 94.00 Z M 1.00 429.00 Z M 450.00 1.00 C 488.00 40.00,430.00 94.00,40.00 429.00 Z M 66.00 510.00 C 0.00 511.00,500.00 1.00,504.00 68.00 Z M 3.00 170.00 C 94.00 127.00,1.00 263.00,262.00 93.00 Z M 38.00 466.00 Z M 44.00 45.00 C 63.00 44.00,42.00 47.00,41.00 48.00 C 65.00 42.00,40.00 49.00,39.00 50.00 C 67.00 40.00,38.00 51.00,37.00 52.00 C 69.00 38.00,36.00 53.00,35.00 54.00 C 71.00 36.00,34.00 55.00,33.00 56.00 C 73.00 34.00,32.00 57.00,31.00 58.00 C 75.00 32.00,30.00 59.00,29.00 60.00 C 77.00 30.00,28.00 61.00,27.00 62.00 C 79.00 28.00,26.00 63.00,25.00 64.00 C 81.00 26.00,24.00 65.00,23.00 66.00 C 83.00 24.00,22.00 67.00,21.00 68.00 C 85.00 22.00,20.00 69.00,19.00 70.00 C 87.00 20.00,18.00 71.00,17.00 72.00 C 89.00 18.00,16.00 73.00,15.00 74.00 C 91.00 16.00,14.00 75.00,4.00 75.00 C 77.00 93.00,8.00 13.00,9.00 14.00 Z M 79.00 142.00 C 76.00 143.00,81.00 140.00,82.00 139.00 C 74.00 145.00,83.00 138.00,84.00 137.00 C 72.00 147.00,85.00 136.00,86.00 135.00 C 70.00 149.00,87.00 134.00,88.00 133.00 C 68.00 151.00,89.00 132.00,90.00 131.00 C 38.00 153.00,4.00 181.00,5.00 129.00 C 92.00 261.00,3.00 182.00,179.00 36.00 C 259.00 5.00,154.00 90.00,40.00 155.00 Z M 9.00 295.00 C 92.00 385.00,3.00 343.00,296.00 91.00 Z M 11.00 392.00 C 92.00 425.00,3.00 394.00,393.00 91.00 Z M 15.00 270.00 Z M 18.00 298.00 C 89.00 382.00,6.00 341.00,299.00 88.00 Z M 20.00 395.00 C 89.00 422.00,6.00 395.00,396.00 88.00 Z M 11.00 56.00 Z M 7.00 123.00 C 91.00 82.00,7.00 115.00,113.00 10.00 Z M 35.00 155.00 C 7.00 178.00,257.00 7.00,256.00 78.00 C 157.00 87.00,255.00 79.00,254.00 80.00 Z M 8.00 166.00 L 131.00 10.00 13.00 162.00 Z M 34.00 156.00 Z M 44.00 283.00 Z M 9.00 332.00 L 8.00 302.00 304.00 13.00 Z M 70.00 163.00 C 15.00 249.00,183.00 11.00,183.00 12.00 C 36.00 182.00,10.00 254.00,9.00 255.00 C 184.00 13.00,251.00 72.00,14.00 250.00 C 184.00 16.00,247.00 68.00,23.00 194.00 Z M 29.00 301.00 C 86.00 379.00,9.00 340.00,302.00 85.00 Z M 30.00 398.00 C 86.00 419.00,9.00 396.00,399.00 85.00 Z M 431.00 9.00 C 447.00 37.00,445.00 36.00,440.00 35.00 Z M 176.00 10.00 C 157.00 33.00,175.00 11.00,173.00 13.00 Z M 35.00 281.00 Z M 16.00 111.00 C 15.00 84.00,89.00 121.00,85.00 88.00 C 111.00 18.00,86.00 20.00,21.00 86.00 Z M 41.00 304.00 Z M 47.00 408.00 C 77.00 407.00,45.00 410.00,44.00 411.00 C 79.00 405.00,43.00 412.00,42.00 413.00 C 81.00 403.00,41.00 414.00,39.00 415.00 C 83.00 401.00,12.00 416.00,415.00 38.00 C 402.00 14.00,414.00 37.00,413.00 36.00 C 404.00 16.00,412.00 35.00,411.00 34.00 Z M 50.00 306.00 C 81.00 331.00,14.00 304.00,307.00 80.00 Z M 30.00 332.00 C 81.00 374.00,14.00 339.00,333.00 80.00 Z M 118.00 16.00 C 87.00 86.00,109.00 24.00,117.00 18.00 Z M 27.00 162.00 Z M 271.00 17.00 Z M 24.00 321.00 C 73.00 320.00,22.00 323.00,21.00 324.00 C 75.00 318.00,20.00 325.00,19.00 326.00 C 77.00 316.00,18.00 327.00,17.00 328.00 Z M 40.00 335.00 C 78.00 371.00,17.00 338.00,336.00 77.00 C 369.00 42.00,337.00 76.00,338.00 75.00 C 367.00 44.00,339.00 74.00,340.00 73.00 C 365.00 46.00,341.00 72.00,342.00 71.00 C 363.00 48.00,343.00 70.00,344.00 69.00 C 361.00 50.00,345.00 68.00,346.00 67.00 C 359.00 52.00,347.00 66.00,348.00 65.00 C 357.00 54.00,349.00 64.00,350.00 63.00 Z M 492.00 17.00 C 502.00 31.00,493.00 25.00,501.00 26.00 Z M 67.00 165.00 C 18.00 246.00,185.00 19.00,167.00 64.00 Z M 65.00 313.00 Z M 30.00 358.00 C 29.00 347.00,32.00 360.00,33.00 361.00 C 27.00 345.00,34.00 362.00,35.00 363.00 C 25.00 343.00,36.00 364.00,37.00 365.00 C 23.00 341.00,38.00 366.00,39.00 367.00 C 21.00 339.00,40.00 368.00,19.00 337.00 Z M 20.00 197.00 C 185.00 21.00,197.00 62.00,243.00 64.00 Z M 115.00 23.00 C 90.00 83.00,107.00 30.00,114.00 25.00 C 92.00 81.00,106.00 32.00,112.00 29.00 C 94.00 79.00,105.00 34.00,38.00 103.00 Z M 24.00 155.00 L 136.00 26.00 28.00 152.00 Z M 58.00 171.00 C 29.00 193.00,195.00 60.00,27.00 190.00 Z M 467.00 26.00 Z M 57.00 172.00 C 30.00 192.00,191.00 56.00,38.00 186.00 Z M 33.00 496.00 Z M 54.00 97.00 C 40.00 103.00,77.00 96.00,108.00 76.00 C 97.00 56.00,107.00 75.00,106.00 74.00 C 99.00 58.00,105.00 73.00,104.00 72.00 Z M 50.00 139.00 L 35.00 147.00 46.00 141.00 Z M 188.00 36.00 Z M 55.00 99.00 C 39.00 107.00,106.00 54.00,42.00 98.00 Z M 39.00 145.00 Z M 66.00 132.00 Z M 39.00 459.00 C 451.00 41.00,487.00 93.00,46.00 444.00 Z M 86.00 438.00 C 47.00 439.00,88.00 436.00,89.00 435.00 C 45.00 441.00,90.00 434.00,91.00 433.00 C 43.00 443.00,92.00 432.00,484.00 90.00 Z M 149.00 43.00 C 135.00 63.00,148.00 44.00,56.00 142.00 Z M 46.00 174.00 L 157.00 48.00 51.00 170.00 Z M 56.00 447.00 C 88.00 482.00,46.00 451.00,448.00 87.00 Z M 499.00 47.00 Z M 76.00 470.00 C 75.00 457.00,78.00 472.00,79.00 473.00 C 73.00 455.00,80.00 474.00,81.00 475.00 C 71.00 453.00,82.00 476.00,83.00 477.00 C 69.00 451.00,84.00 478.00,85.00 479.00 Z M 451.00 51.00 C 476.00 63.00,454.00 53.00,455.00 54.00 C 474.00 61.00,456.00 55.00,457.00 56.00 Z M 272.00 60.00 C 284.00 88.00,272.00 61.00,273.00 62.00 C 282.00 86.00,274.00 63.00,275.00 64.00 Z M 497.00 84.00 C 509.00 93.00,497.00 85.00,498.00 86.00 Z M 11.00 11.00 C 94.00 62.00,1.00 20.00,10.00 95.00 C 15.00 5.00,3.00 1.00,0.00 33.00 C 35.00 7.00,2.00 4.00,2.00 27.00 Z M 51.00 20.00 C 85.00 53.00,10.00 21.00,3.00 60.00 C 20.00 2.00,61.00 93.00,54.00 9.00 C 19.00 86.00,43.00 18.00,8.00 21.00 C 59.00 4.00,14.00 91.00,90.00 15.00 Z M 36.00 16.00 Z M 55.00 21.00 C 84.00 52.00,11.00 21.00,80.00 25.00 Z M 75.00 43.00 C 74.00 36.00,77.00 45.00,78.00 46.00 C 72.00 34.00,79.00 47.00,80.00 48.00 C 70.00 32.00,81.00 49.00,82.00 50.00 C 13.00 22.00,49.00 14.00,48.00 15.00 C 33.00 67.00,47.00 16.00,46.00 17.00 C 35.00 65.00,45.00 18.00,44.00 19.00 C 37.00 63.00,43.00 20.00,42.00 21.00 Z M 66.00 30.00 L 15.00 31.00 28.00 63.00 Z M 23.00 21.00 Z M 72.00 25.00 Z" />
  </g>
  <g id="merged_03161f" fill="#03161f" fill-rule="evenodd">
    <path d="M 0.00 73.00 C 71.00 1.00,2.00 0.00,3.00 0.00 C 9.00 95.00,0.00 36.00,1.00 37.00 Z M 0.00 119.00 C 78.00 2.00,4.00 94.00,6.00 92.00 Z M 0.00 172.00 C 126.00 2.00,79.00 94.00,80.00 93.00 C 125.00 3.00,81.00 92.00,82.00 91.00 C 123.00 7.00,83.00 90.00,84.00 89.00 C 121.00 10.00,85.00 88.00,86.00 17.00 Z M 9.00 268.00 C 93.00 289.00,2.00 267.00,1.00 266.00 C 95.00 291.00,0.00 267.00,269.00 92.00 Z M 1.00 292.00 C 95.00 389.00,0.00 344.00,293.00 94.00 Z M 4.00 390.00 C 95.00 428.00,0.00 393.00,391.00 94.00 Z M 1.00 429.00 C 40.00 449.00,0.00 442.00,447.00 33.00 Z M 450.00 1.00 C 488.00 40.00,430.00 94.00,41.00 429.00 Z M 4.00 490.00 Z M 3.00 170.00 C 94.00 127.00,1.00 264.00,263.00 93.00 Z M 38.00 464.00 Z M 70.00 509.00 Z M 44.00 45.00 C 63.00 44.00,42.00 47.00,41.00 48.00 C 65.00 42.00,40.00 49.00,39.00 50.00 C 67.00 40.00,38.00 51.00,37.00 52.00 C 69.00 38.00,36.00 53.00,35.00 54.00 C 71.00 36.00,34.00 55.00,33.00 56.00 C 73.00 34.00,32.00 57.00,31.00 58.00 C 75.00 32.00,30.00 59.00,29.00 60.00 C 77.00 30.00,28.00 61.00,27.00 62.00 C 79.00 28.00,26.00 63.00,25.00 64.00 C 81.00 26.00,24.00 65.00,23.00 66.00 C 83.00 24.00,22.00 67.00,21.00 68.00 C 85.00 22.00,20.00 69.00,19.00 70.00 C 87.00 20.00,18.00 71.00,17.00 72.00 C 89.00 18.00,16.00 73.00,15.00 74.00 C 91.00 16.00,14.00 75.00,4.00 75.00 C 77.00 93.00,8.00 13.00,9.00 14.00 Z M 5.00 180.00 C 38.00 153.00,4.00 181.00,5.00 129.00 C 92.00 262.00,3.00 182.00,131.00 90.00 C 160.00 67.00,132.00 89.00,182.00 37.00 Z M 9.00 295.00 C 92.00 386.00,3.00 343.00,296.00 91.00 Z M 14.00 393.00 C 92.00 425.00,3.00 394.00,394.00 91.00 Z M 17.00 271.00 C 90.00 286.00,5.00 273.00,42.00 279.00 Z M 36.00 154.00 L 178.00 35.00 8.00 177.00 Z M 17.00 298.00 C 89.00 383.00,6.00 341.00,299.00 88.00 Z M 23.00 396.00 C 89.00 422.00,6.00 395.00,397.00 88.00 Z M 70.00 158.00 C 69.00 133.00,88.00 258.00,257.00 8.00 Z M 8.00 43.00 Z M 8.00 166.00 L 131.00 10.00 13.00 162.00 Z M 9.00 332.00 L 8.00 302.00 304.00 13.00 Z M 10.00 491.00 Z M 176.00 9.00 Z M 40.00 282.00 Z M 28.00 301.00 C 86.00 380.00,9.00 340.00,302.00 85.00 Z M 33.00 399.00 C 86.00 419.00,9.00 396.00,400.00 85.00 Z M 34.00 184.00 C 12.00 253.00,83.00 138.00,84.00 137.00 C 11.00 254.00,185.00 13.00,139.00 77.00 Z M 31.00 280.00 Z M 76.00 409.00 C 45.00 410.00,78.00 407.00,79.00 406.00 C 43.00 412.00,80.00 405.00,81.00 404.00 C 41.00 414.00,82.00 403.00,83.00 402.00 C 39.00 416.00,84.00 401.00,396.00 12.00 C 416.00 38.00,402.00 13.00,403.00 14.00 C 414.00 36.00,404.00 15.00,405.00 16.00 C 412.00 34.00,406.00 17.00,410.00 32.00 Z M 40.00 304.00 C 83.00 377.00,12.00 339.00,305.00 82.00 Z M 432.00 12.00 Z M 19.00 110.00 C 18.00 86.00,87.00 119.00,87.00 86.00 C 110.00 21.00,88.00 23.00,24.00 88.00 Z M 79.00 249.00 C 78.00 156.00,81.00 251.00,250.00 15.00 C 158.00 77.00,249.00 16.00,19.00 186.00 Z M 276.00 14.00 C 272.00 20.00,285.00 89.00,275.00 30.00 Z M 30.00 332.00 C 81.00 375.00,14.00 339.00,333.00 80.00 Z M 29.00 160.00 L 171.00 28.00 19.00 168.00 Z M 53.00 307.00 C 80.00 330.00,15.00 304.00,308.00 79.00 Z M 492.00 16.00 C 502.00 31.00,493.00 26.00,500.00 29.00 Z M 24.00 321.00 C 73.00 320.00,22.00 323.00,21.00 324.00 C 75.00 318.00,20.00 325.00,19.00 326.00 C 77.00 316.00,18.00 327.00,17.00 328.00 Z M 40.00 335.00 C 78.00 372.00,17.00 338.00,336.00 77.00 Z M 453.00 18.00 L 484.00 31.00 30.00 455.00 Z M 30.00 359.00 C 29.00 347.00,32.00 361.00,33.00 362.00 C 27.00 345.00,34.00 363.00,35.00 364.00 C 25.00 343.00,36.00 365.00,37.00 366.00 C 23.00 341.00,38.00 367.00,39.00 368.00 C 21.00 339.00,40.00 369.00,19.00 337.00 Z M 28.00 107.00 C 27.00 89.00,84.00 116.00,90.00 83.00 C 107.00 30.00,91.00 32.00,79.00 94.00 Z M 72.00 161.00 C 20.00 245.00,187.00 21.00,68.00 164.00 Z M 24.00 155.00 L 136.00 26.00 28.00 152.00 Z M 26.00 195.00 C 67.00 165.00,24.00 196.00,218.00 48.00 Z M 114.00 25.00 Z M 187.00 28.00 C 62.00 191.00,63.00 192.00,166.00 65.00 Z M 38.00 103.00 C 37.00 95.00,78.00 110.00,96.00 77.00 C 103.00 40.00,97.00 76.00,98.00 75.00 C 106.00 56.00,99.00 74.00,100.00 73.00 Z M 33.00 496.00 Z M 189.00 34.00 Z M 50.00 139.00 L 35.00 147.00 46.00 141.00 Z M 39.00 145.00 C 142.00 42.00,145.00 62.00,66.00 149.00 Z M 44.00 181.00 C 53.00 175.00,43.00 182.00,184.00 55.00 Z M 46.00 103.00 C 53.00 100.00,45.00 104.00,105.00 54.00 Z M 49.00 437.00 C 88.00 436.00,47.00 439.00,46.00 440.00 C 90.00 434.00,45.00 441.00,44.00 442.00 C 92.00 432.00,43.00 443.00,451.00 42.00 Z M 52.00 446.00 Z M 64.00 134.00 Z M 60.00 448.00 Z M 499.00 47.00 Z M 76.00 460.00 C 77.00 471.00,74.00 458.00,73.00 457.00 C 79.00 473.00,72.00 456.00,71.00 455.00 C 81.00 475.00,70.00 454.00,69.00 453.00 C 83.00 477.00,68.00 452.00,67.00 451.00 C 85.00 479.00,66.00 450.00,48.00 451.00 C 479.00 49.00,452.00 65.00,453.00 64.00 C 477.00 51.00,454.00 63.00,455.00 62.00 C 475.00 53.00,456.00 61.00,457.00 60.00 Z M 151.00 49.00 C 160.00 65.00,151.00 50.00,152.00 51.00 Z M 63.00 163.00 L 54.00 168.00 164.00 61.00 Z M 57.00 283.00 C 273.00 60.00,284.00 88.00,283.00 87.00 C 274.00 62.00,282.00 86.00,281.00 85.00 Z M 80.00 507.00 C 497.00 84.00,509.00 93.00,508.00 92.00 C 498.00 86.00,507.00 91.00,506.00 90.00 Z M 59.00 22.00 C 83.00 51.00,12.00 21.00,2.00 61.00 C 20.00 3.00,60.00 92.00,31.00 17.00 C 25.00 15.00,32.00 18.00,91.00 59.00 C 4.00 20.00,58.00 5.00,36.00 16.00 Z M 39.00 17.00 C 88.00 56.00,7.00 21.00,18.00 87.00 Z M 51.00 20.00 Z M 78.00 30.00 C 14.00 22.00,50.00 13.00,49.00 14.00 C 32.00 81.00,48.00 15.00,47.00 16.00 C 34.00 79.00,46.00 17.00,45.00 18.00 C 36.00 77.00,44.00 19.00,43.00 20.00 C 38.00 75.00,42.00 21.00,40.00 23.00 C 19.00 25.00,29.00 15.00,81.00 24.00 Z M 22.00 21.00 Z" />
  </g>
  <g id="merged_3094a1" fill="#3094a1" fill-rule="evenodd">
    <path d="M 13.00 39.00 C 12.00 30.00,48.00 12.00,8.00 46.00 C 10.00 14.00,26.00 12.00,14.00 1.00 Z M 21.00 496.00 L 0.00 497.00 494.00 18.00 Z M 6.00 176.00 L 169.00 8.00 168.00 9.00 Z M 52.00 502.00 Z M 52.00 22.00 Z" />
  </g>
  <g id="merged_124c62" fill="#124c62" fill-rule="evenodd">
    <path d="M 30.00 443.00 C 28.00 440.00,0.00 431.00,2.00 431.00 Z M 16.00 462.00 C 11.00 475.00,17.00 461.00,18.00 460.00 C 5.00 477.00,19.00 459.00,20.00 458.00 C 3.00 479.00,21.00 457.00,22.00 456.00 Z M 22.00 437.00 Z M 46.00 448.00 L 43.00 449.00 55.00 451.00 Z" />
  </g>
  <g id="merged_c92f64" fill="#c92f64" fill-rule="evenodd">
    
  </g>
</svg>